<svg xmlns="http://www.w3.org/2000/svg" width="27.206" height="36.09" viewBox="0 0 27.206 36.09">
  <g id="ico_pin" transform="translate(23089.602 14942.971)">
    <path id="Differenzmenge_3" data-name="Differenzmenge 3" d="M-630.9-342.588h0a48.176,48.176,0,0,1-6.551-6.592,34.811,34.811,0,0,1-4.5-6.948A19.226,19.226,0,0,1-644-364.363a13.112,13.112,0,0,1,3.838-9.31,12.986,12.986,0,0,1,9.265-3.856,12.986,12.986,0,0,1,9.265,3.856,13.112,13.112,0,0,1,3.838,9.31,18.811,18.811,0,0,1-2.047,8.078,36.149,36.149,0,0,1-4.5,6.966,51.524,51.524,0,0,1-6.551,6.731Zm0-29.119a5.83,5.83,0,0,0-5.823,5.824,5.83,5.83,0,0,0,5.823,5.823,5.83,5.83,0,0,0,5.824-5.823A5.831,5.831,0,0,0-630.9-371.706Z" transform="translate(-22445.102 -14564.941)" fill="#fff" stroke="rgba(0,0,0,0)" stroke-width="1"/>
  </g>
</svg>
